HIERARCHY
ROOT Hips
{
	OFFSET 0.00000 0.00000 0.00000
	CHANNELS 6 Xposition Yposition Zposition Zrotation Yrotation Xrotation 
	JOINT LHipJoint
	{
		OFFSET 0 0 0
		CHANNELS 3 Zrotation Yrotation Xrotation
		JOINT LeftHip
		{
			OFFSET 1.34019 -1.87553 0.90315
			CHANNELS 3 Zrotation Yrotation Xrotation
			JOINT LeftKnee
			{
				OFFSET 2.55316 -7.01474 0.00000
				CHANNELS 3 Zrotation Yrotation Xrotation
				JOINT LeftAnkle
				{
					OFFSET 2.64657 -7.27139 0.00000
					CHANNELS 3 Zrotation Yrotation Xrotation
					JOINT LeftToe
					{
						OFFSET 0.24207 -0.66507 2.14489
						CHANNELS 3 Zrotation Yrotation Xrotation
						End Site
						{
							OFFSET 0.00000 -0.00000 1.12451
						}
					}
				}
			}
		}
	}
	JOINT RHipJoint
	{
		OFFSET 0 0 0
		CHANNELS 3 Zrotation Yrotation Xrotation
		JOINT RightHip
		{
			OFFSET -1.28320 -1.87553 0.90315
			CHANNELS 3 Zrotation Yrotation Xrotation
			JOINT RightKnee
			{
				OFFSET -2.60484 -7.15674 0.00000
				CHANNELS 3 Zrotation Yrotation Xrotation
				JOINT RightAnkle
				{
					OFFSET -2.60296 -7.15159 0.00000
					CHANNELS 3 Zrotation Yrotation Xrotation
					JOINT RightToe
					{
						OFFSET -0.31082 -0.85398 2.28998
						CHANNELS 3 Zrotation Yrotation Xrotation
						End Site
						{
							OFFSET -0.00000 -0.00000 1.21611
						}
					}
				}
			}
		}
	}
	JOINT lowerback
	{
		OFFSET 0 0 0
		CHANNELS 3 Zrotation Yrotation Xrotation
		JOINT Chest
		{
			OFFSET -0.00160 2.05581 -0.15156
			CHANNELS 3 Zrotation Yrotation Xrotation
			JOINT Chest2
			{
				OFFSET 0.04594 2.06326 -0.01617
				CHANNELS 3 Zrotation Yrotation Xrotation
				JOINT lowerneck
				{
					OFFSET 0 0 0
					CHANNELS 3 Zrotation Yrotation Xrotation
					JOINT Neck
					{
						OFFSET 0.03753 1.73883 0.26751
						CHANNELS 3 Zrotation Yrotation Xrotation
						JOINT Head
						{
							OFFSET -0.09795 1.76129 -0.31794
							CHANNELS 3 Zrotation Yrotation Xrotation
							End Site
							{
								OFFSET -0.03611 1.79987 -0.13846
							}
						}
					}
				}
				JOINT LeftCollar
				{
					OFFSET 0 0 0
					CHANNELS 3 Zrotation Yrotation Xrotation
					JOINT LeftShoulder
					{
						OFFSET 3.30667 1.29205 -0.22445
CHANNELS 3 Zrotation Xrotation Yrotation
						JOINT LeftElbow
						{
OFFSET 0 -4.927850 -0.000000
CHANNELS 3 Zrotation Xrotation Yrotation
							JOINT LeftWrist
							{
OFFSET 0 -3.440520 0.000000
CHANNELS 3 Zrotation Xrotation Yrotation
								JOINT lhand
								{
									OFFSET 0 0 0
CHANNELS 3 Zrotation Xrotation Yrotation
									JOINT LFingers
									{
OFFSET 0 -0.654330 0.000000
CHANNELS 3 Zrotation Xrotation Yrotation
										End Site
										{
OFFSET 0 -0.527530 0.000000
										}
									}
								}
								JOINT LThumb
								{
OFFSET 0 0.000000 0.000000
CHANNELS 3 Zrotation Xrotation Yrotation
									End Site
									{
OFFSET 0 -0.535590 0.535590
									}
								}
							}
						}
					}
				}
				JOINT RightCollar
				{
					OFFSET 0 0 0
					CHANNELS 3 Zrotation Yrotation Xrotation
					JOINT RightShoulder
					{
						OFFSET -3.20032 1.49783 -0.27688
CHANNELS 3 Zrotation Xrotation Yrotation
						JOINT RightElbow
						{
OFFSET 0 -5.091810 -0.000000
CHANNELS 3 Zrotation Xrotation Yrotation
							JOINT RightWrist
							{
OFFSET 0 -3.498650 -0.000000
CHANNELS 3 Zrotation Xrotation Yrotation
								JOINT rhand
								{
									OFFSET 0 0 0
CHANNELS 3 Zrotation Xrotation Yrotation
									JOINT RFingers
									{
OFFSET 0 -0.666410 0.000000
CHANNELS 3 Zrotation Xrotation Yrotation
										End Site
										{
OFFSET 0 -0.537280 0.000000
										}
									}
								}
								JOINT RThumb
								{
OFFSET 0 0.000000 0.000000
CHANNELS 3 Zrotation Xrotation Yrotation
									End Site
									{
OFFSET 0 -0.545480 0.545480
									}
								}
							}
						}
					}
				}
			}
		}
	}
}
MOTION
Frames: 7
Frame Time: 0.008333333333333333
-0.104300 17.918700 -26.725100 0.781900 47.913900 3.463500 0.000000 0.000000 0.000000 -12.562000 -22.159600 -11.669900 1.795600 8.426700 24.017900 -0.127000 -11.835000 -6.366600 0.256800 -3.260700 -9.005300 0.000000 0.000000 0.000000 19.446000 -20.811900 -6.977800 -1.699600 -8.210200 23.354500 3.145200 -37.269900 -39.716600 -0.117200 -2.207500 6.079400 2.164800 6.285200 1.037700 3.043600 8.441900 0.202600 1.788500 4.229600 -0.518300 10.159600 21.688900 2.277800 -10.021600 30.650000 10.491200 -2.369400 15.189600 5.915900 -0.000000 -0.000000 0.000000 3.826000 3.333000 12.027500 10.022200 -16.774400 1.481400 16.982100 7.068700 -5.644100 0.000000 0.000000 0.000000 -7.125000 0.000000 0.000000 -8.127200 35.780100 -1.856800 -0.000000 -0.000000 0.000000 -16.587500 -0.032200 13.996700 -28.364600 -39.449700 -10.354500 -16.783700 -19.083300 -0.294000 0.000000 0.000000 0.000000 7.125000 0.000000 -0.000000 7.670900 29.630400 2.898700
-0.103657 17.910814 -26.713718 0.951830 47.779103 3.157909 0.000000 0.000000 0.000000 -12.893084 -22.019224 -11.084718 1.800321 8.437121 24.049894 -0.104810 -11.633512 -6.555761 0.259596 -3.277970 -9.053665 0.000000 0.000000 0.000000 19.120773 -21.080684 -6.427862 -1.687404 -8.182052 23.268423 3.110218 -37.126155 -39.582982 -0.114550 -2.182474 6.010160 3.364974 8.523065 2.434949 0.601899 11.494496 -0.999697 -1.623164 5.700446 -1.847962 14.844756 19.480657 3.327871 -9.256297 27.384599 9.054562 -3.192176 13.778268 5.478045 0.000000 0.000000 0.000000 8.951712 3.915995 7.034769 9.160292 -15.415532 1.242418 16.834196 8.051185 -5.488207 0.000000 0.000000 0.000000 -7.125000 0.000000 0.000000 -8.229048 35.611730 -1.915194 0.000000 0.000000 0.000000 -12.290499 2.641721 8.798368 -29.888822 -40.796575 -11.337354 -16.880790 -19.090185 -0.483164 0.000000 0.000000 0.000000 7.125000 0.000000 0.000000 7.580693 29.435093 2.899491
-0.104022 17.908636 -26.707072 0.851391 47.339840 2.892170 0.000000 0.000000 0.000000 -12.903339 -21.816651 -10.796999 1.805028 8.447527 24.081937 -0.075647 -11.273958 -6.730190 0.263264 -3.300613 -9.116869 0.000000 0.000000 0.000000 19.050841 -20.925923 -6.117541 -1.676803 -8.157577 23.193782 3.134873 -37.073856 -39.351587 -0.111772 -2.155132 5.934717 3.316860 8.758867 2.753987 0.559860 11.819101 -0.993198 -1.699765 5.858869 -2.003389 14.967656 19.435754 3.325116 -9.491033 27.368649 9.123643 -3.262451 13.766940 5.548477 0.000000 0.000000 0.000000 8.803824 4.600923 8.499872 8.875128 -14.961120 1.167623 16.259238 8.925519 -5.104725 0.000000 0.000000 0.000000 -7.125000 0.000000 0.000000 -8.653065 35.188244 -2.105306 0.000000 0.000000 0.000000 -12.242642 2.831597 9.621641 -31.270385 -41.957404 -12.250248 -17.023964 -19.391955 -0.803215 0.000000 0.000000 0.000000 7.125000 0.000000 0.000000 7.445615 29.104044 2.906218
-0.104061 17.908839 -26.695599 0.663910 46.990580 2.686916 0.000000 0.000000 0.000000 -12.766898 -21.627371 -10.671572 1.807632 8.453320 24.099599 -0.056001 -11.065842 -6.883407 0.262225 -3.294456 -9.099600 0.000000 0.000000 0.000000 19.147680 -20.692323 -5.872740 -1.654449 -8.105907 23.036190 3.160642 -37.096330 -39.272620 -0.110604 -2.144656 5.905500 3.291529 8.930806 2.864097 0.513375 12.050300 -0.981541 -1.755518 5.973564 -2.036262 15.027448 19.455872 3.285946 -9.662428 27.406854 9.037890 -3.307198 13.779675 5.564526 0.000000 0.000000 0.000000 8.556420 5.156279 9.875625 8.715839 -14.706358 1.126916 15.878548 9.410058 -4.750835 0.000000 0.000000 0.000000 -7.125000 0.000000 0.000000 -8.918974 34.807154 -2.254890 0.000000 0.000000 0.000000 -12.237274 2.648913 10.466157 -32.047982 -42.585351 -12.773291 -17.087325 -19.543833 -1.088675 0.000000 0.000000 0.000000 7.125000 0.000000 0.000000 7.376158 28.808127 2.930959
-0.104100 17.907986 -26.681533 0.435573 46.649042 2.419535 0.000000 0.000000 0.000000 -12.602825 -21.412122 -10.505227 1.810171 8.458827 24.116667 -0.037034 -10.896806 -7.060574 0.260943 -3.286587 -9.077717 0.000000 0.000000 0.000000 19.283597 -20.427518 -5.538390 -1.626108 -8.039462 22.834043 3.193691 -37.161582 -39.248633 -0.109572 -2.134574 5.877708 3.306460 9.100124 2.974437 0.435236 12.278265 -0.963094 -1.862145 6.086325 -2.047025 15.011250 19.501068 3.297797 -9.726395 27.442700 8.734742 -3.334474 13.794250 5.478191 0.000000 0.000000 0.000000 8.279579 5.622636 10.701906 8.686975 -14.660112 1.119569 15.695567 9.409029 -4.521379 0.000000 0.000000 0.000000 -7.125000 0.000000 0.000000 -9.038571 34.563781 -2.339816 0.000000 0.000000 0.000000 -12.019448 2.579005 11.152886 -32.536331 -42.970467 -13.104985 -17.126957 -19.415845 -1.280103 0.000000 0.000000 0.000000 7.125000 0.000000 0.000000 7.332415 28.609428 2.948153
-0.102355 17.905940 -26.670203 0.349100 46.332899 2.252927 0.000000 0.000000 0.000000 -12.569317 -21.218953 -10.312108 1.809712 8.457991 24.114077 -0.018060 -10.720489 -7.233119 0.260853 -3.285812 -9.075518 0.000000 0.000000 0.000000 19.286070 -20.241921 -5.247041 -1.606237 -7.992701 22.691775 3.206449 -37.162992 -39.188346 -0.108736 -2.125791 5.853501 3.239684 9.276677 3.066363 0.340900 12.511114 -0.931213 -1.939471 6.203119 -2.046068 14.884390 19.564131 3.536711 -9.822768 27.487535 8.005482 -3.406932 13.819478 5.213781 0.000000 0.000000 0.000000 7.909148 6.078483 10.261411 8.826168 -14.882999 1.155059 15.634466 8.276375 -4.453433 0.000000 0.000000 0.000000 -7.125000 0.000000 0.000000 -9.079679 34.491571 -2.366766 0.000000 0.000000 0.000000 -11.503163 2.904313 11.540057 -32.947577 -43.289695 -13.386119 -17.079981 -18.964671 -1.460444 0.000000 0.000000 0.000000 7.125000 0.000000 0.000000 7.356670 28.422430 2.990963
-0.097731 17.905165 -26.664060 0.334366 46.041266 2.232323 0.000000 0.000000 0.000000 -12.572458 -21.087940 -10.221650 1.808065 8.454251 24.102652 -0.001035 -10.530100 -7.367352 0.263798 -3.304248 -9.127010 0.000000 0.000000 0.000000 19.239909 -20.098517 -5.122150 -1.593698 -7.962806 22.601182 3.206572 -37.107620 -39.068794 -0.108914 -2.128060 5.859574 3.193012 9.474094 3.074332 0.190128 12.769018 -0.934836 -2.071117 6.332331 -2.016658 14.903721 19.562427 3.759487 -9.966426 27.461226 7.374339 -3.507373 13.811224 5.001481 0.000000 0.000000 0.000000 7.522307 6.425338 9.269540 9.038799 -15.222244 1.210290 15.448447 6.770273 -4.284425 0.000000 0.000000 0.000000 -7.125000 0.000000 0.000000 -9.209416 34.310691 -2.442329 0.000000 0.000000 0.000000 -11.077321 3.138292 11.794349 -32.773515 -43.155162 -13.266987 -16.926529 -18.686587 -1.659263 0.000000 0.000000 0.000000 7.125000 0.000000 0.000000 7.461805 28.216611 3.071052
